<?xml version="1.0" encoding="utf-8"?>
<!-- Generator: Adobe Illustrator 21.1.0, SVG Export Plug-In . SVG Version: 6.00 Build 0)  -->
<svg version="1.1" id="Layer_1" xmlns="http://www.w3.org/2000/svg" xmlns:xlink="http://www.w3.org/1999/xlink" x="0px" y="0px"
	 viewBox="0 0 37.1 20.1" style="enable-background:new 0 0 37.1 20.1;" xml:space="preserve">
<path d="M36.2,17.7c-0.9,0-5.1,0-5.1,0s0-3.1-3.4-3.1c-2.6,0-2.8,3.1-2.8,3.1H11.3c0,0-0.2-3.1-3-3.1c-2.9,0-3,3.1-3,3.1H2.1
	c0,0-0.7,0-0.7-0.5s0-0.6,0-0.6s-0.2-0.5,0.5-0.5h0.7v-1.9H1.7c0,0-1.7-0.1-1.7-1.6S0,0.8,0,0.8S-0.1,0,1,0s21.7,0,21.7,0
	s0.9-0.1,0.9,0.5s0,3.1,0,3.1h8.7l3.7,7.5v5h0.6c0,0,0.4,0.1,0.4,0.4s0,0.6,0,0.6S37.1,17.7,36.2,17.7z M3.4,2.4L2.1,9.8h1.3L4,6.9
	h2l0.2-1.3h-2l0.3-1.9h2.2L7,2.4H3.4z M11.1,2.9c-0.3-0.3-0.9-0.5-1.6-0.5H8L6.6,9.8h1.3L8.5,7H9l0.9,2.8h1.5l-1.1-3.1
	c0.5-0.2,0.8-0.5,1-0.9s0.4-0.8,0.4-1.4C11.6,3.8,11.4,3.3,11.1,2.9z M13.2,2.4l-1.3,7.4h3.6l0.2-1.3h-2.2l0.3-1.9h2.1l0.2-1.3H14
	l0.3-1.6h2.2l0.2-1.3C16.7,2.4,13.2,2.4,13.2,2.4z M17.8,2.4l-1.3,7.4H20l0.2-1.3H18l0.3-1.9h2.1l0.2-1.3h-2.1l0.3-1.6H21l0.2-1.3
	C21.2,2.4,17.8,2.4,17.8,2.4z M33.4,9.6l-2.2-4.3h-6.5v4.1l8.7,1.8V9.6z M9,5.7H8.7l0.4-2h0.3c0.3,0,0.5,0.1,0.7,0.2
	c0.1,0.1,0.2,0.4,0.2,0.6c0,0.4-0.1,0.7-0.3,0.9C9.7,5.6,9.4,5.7,9,5.7z M8.3,15.1c1.4,0,2.6,1.1,2.6,2.5s-1.1,2.5-2.6,2.5
	S5.7,19,5.7,17.6S6.9,15.1,8.3,15.1z M8.3,18.4c0.5,0,0.9-0.4,0.9-0.8c0-0.5-0.4-0.8-0.9-0.8s-0.9,0.4-0.9,0.8S7.8,18.4,8.3,18.4z
	 M28.1,15.1c1.4,0,2.6,1.1,2.6,2.5s-1.1,2.5-2.6,2.5c-1.4,0-2.6-1.1-2.6-2.5S26.7,15.1,28.1,15.1z M28.1,18.4c0.5,0,0.9-0.4,0.9-0.8
	c0-0.5-0.4-0.8-0.9-0.8s-0.9,0.4-0.9,0.8S27.6,18.4,28.1,18.4z"/>
</svg>
